<?xml version="1.0" encoding="UTF-8" standalone="no"?>
        <svg 
    viewBox="3.0029296875 -85.83984375 448.1689453125 56.982421875"
    width="445.166015625"
    height="142.822265625"
   xmlns="http://www.w3.org/2000/svg"
   xmlns:svg="http://www.w3.org/2000/svg">
   <path d="M28.05-90.01L28.05-128.10L54.57-125.54Q54.35-123.85 53.28-122.75Q52.22-121.66 49.07-121.22L49.07-121.22L49.07-90.89L57.42-102.91Q57.42-102.91 59.73-100.85Q62.04-98.80 65.30-95.84Q68.55-92.87 71.41-90.01L71.41-90.01L90.89-90.01L90.89-127.81L117.48-125.24Q117.26-123.71 116.16-122.53Q115.06-121.36 111.91-120.92L111.91-120.92L111.91-90.01L119.68-90.01L129.27-103.34Q129.27-103.34 131.03-101.88Q132.79-100.42 135.50-98.07Q138.21-95.73 141.14-93.13Q144.07-90.53 146.41-88.18L146.41-88.18Q145.75-85.77 142.24-85.77L142.24-85.77L115.21-85.77Q119.90-69.95 128.94-58.19Q137.99-46.44 148.83-40.80L148.83-40.80L148.83-38.96Q141.72-33.62 138.21-26.66Q134.69-19.70 133.67-10.99L133.67-10.99Q127.15-19.12 122.94-31.16Q118.73-43.21 116.24-57.31Q113.75-71.41 112.35-85.77L112.35-85.77L111.91-85.77L111.91 6.59Q111.91 7.62 109.28 9.38Q106.64 11.13 102.76 12.52Q98.88 13.92 94.92 13.92L94.92 13.92L90.89 13.92L90.89-43.80Q77.05-23.80 54.79-9.74L54.79-9.74L53.10-11.28Q61.96-20.80 68.63-32.96Q75.29-45.12 79.87-58.63Q84.45-72.14 87.01-85.77L87.01-85.77L71.41-85.77L71.26-86.28Q70.39-85.77 69.14-85.77L69.14-85.77L49.07-85.77L49.07-77.86Q59.03-74.63 64.38-70.31Q69.73-65.99 71.37-61.49Q73.02-56.98 71.89-53.17Q70.75-49.37 67.79-47.20Q64.82-45.04 60.90-45.41Q56.98-45.78 53.10-49.66L53.10-49.66Q53.54-55.74 52.29-61.96Q51.05-68.19 49.07-73.54L49.07-73.54L49.07 8.28Q49.07 9.08 46.51 10.47Q43.95 11.87 40.10 13.00Q36.25 14.14 32.23 14.14L32.23 14.14L28.05 14.14L28.05-43.07Q23.22-36.84 17.36-31.27Q11.50-25.71 4.61-20.87L4.61-20.87L3.00-22.34Q9.16-30.69 13.81-41.05Q18.46-51.42 21.68-62.88Q24.90-74.34 26.88-85.77L26.88-85.77L6.59-85.77L5.42-90.01L28.05-90.01ZM199.95-52.08L199.95-52.08L220.02-46.07Q219.07-42.92 214.38-42.92L214.38-42.92Q211.01-36.91 206.87-30.87Q202.73-24.83 198.63-20.21L198.63-20.21L196.36-21.31Q197.24-27.17 198.27-35.67Q199.29-44.17 199.95-52.08ZM158.86-51.27L160.62-51.78Q169.19-45.78 172.60-39.70Q176.00-33.62 175.78-28.53Q175.56-23.44 173.00-20.40Q170.43-17.36 166.77-17.40Q163.11-17.43 159.74-21.61L159.74-21.61Q160.99-28.93 160.55-36.91Q160.11-44.90 158.86-51.27L158.86-51.27ZM263.23-103.64L249.17-103.64Q246.02-99.39 242.32-95.36Q238.62-91.33 234.59-87.60L234.59-87.60Q242.50-86.57 246.75-83.83Q251.00-81.08 252.47-77.86L252.47-77.86Q255.83-84.16 258.58-90.64Q261.33-97.12 263.23-103.64L263.23-103.64ZM237.60-128.39L237.60-128.39L264.18-119.68Q263.67-118.58 262.46-118.10Q261.25-117.63 258.33-118.07L258.33-118.07Q256.93-115.43 255.43-112.87Q253.93-110.30 252.17-107.89L252.17-107.89L262.50-107.89L273.78-118.80L292.02-102.61Q291.28-101.37 289.93-100.82Q288.57-100.27 285.72-99.90L285.72-99.90Q280.00-85.47 270.74-72.47Q261.47-59.47 248.07-48.93L248.07-48.93L249.61-48.27L268.36-48.27L276.64-58.96L295.97-44.82Q295.24-43.95 293.85-43.21Q292.46-42.48 290.11-42.11L290.11-42.11L290.11 6.59Q290.11 7.62 285.72 9.59Q281.32 11.57 273.27 11.57L273.27 11.57L269.68 11.57L269.68 0.88L247.63 0.88L247.63 8.13Q247.63 9.08 243.49 11.50Q239.36 13.92 231.88 13.92L231.88 13.92L228.30 13.92L228.30-35.82Q219.07-31.13 208.52-27.32L208.52-27.32L207.42-28.93Q218.12-35.82 227.27-44.75Q236.43-53.69 243.75-63.87L243.75-63.87Q239.72-63.65 235.62-66.43L235.62-66.43Q235.40-70.83 233.64-75.22Q231.88-79.61 229.17-83.13L229.17-83.13Q220.31-75.95 209.55-70.97L209.55-70.97L208.37-72.14Q215.26-78.44 221.08-87.67Q226.90-96.90 231.15-107.48Q235.40-118.07 237.60-128.39ZM247.63-44.09L247.63-3.30L269.68-3.30L269.68-44.09L247.63-44.09ZM165.89 13.92L154.03-8.28Q157.91-8.72 163.73-9.52Q169.56-10.33 176.88-11.57L176.88-11.57L176.88-57.13L157.32-57.13L156.15-61.38L176.88-61.38L176.88-79.47L167.72-79.47L167.29-81.15Q163.84-78.22 160.25-75.55Q156.67-72.88 152.86-70.68L152.86-70.68L151.46-71.70Q155.86-77.34 159.78-84.59Q163.70-91.85 166.85-99.68Q170.00-107.52 172.23-114.99Q174.46-122.46 175.49-128.39L175.49-128.39L200.68-120.12Q200.39-118.80 199.07-117.85Q197.75-116.89 194.82-116.67L194.82-116.67Q205.08-114.84 210.64-111.73Q216.21-108.62 218.23-105.07Q220.24-101.51 219.47-98.36Q218.70-95.21 216.17-93.16Q213.65-91.11 210.17-90.93Q206.69-90.75 203.25-93.31L203.25-93.31Q201.78-97.05 198.93-102.14Q196.07-107.23 192.11-112.21L192.11-112.21Q188.23-105.03 182.59-97.63Q176.95-90.23 169.92-83.72L169.92-83.72L189.92-83.72L198.63-96.31Q198.63-96.31 201.34-93.93Q204.05-91.55 207.71-88.18Q211.38-84.81 214.23-81.88L214.23-81.88Q213.57-79.47 210.13-79.47L210.13-79.47L194.97-79.47L194.97-63.43L202.66-75.15Q202.66-75.15 204.31-73.61Q205.96-72.07 208.45-69.65Q210.94-67.24 213.61-64.56Q216.28-61.89 218.41-59.55L218.41-59.55Q217.75-57.13 214.38-57.13L214.38-57.13L194.97-57.13L194.97-14.43L221.56-18.90L221.85-17.43Q213.94-12.30 201.42-5.57Q188.89 1.17 170.07 10.03L170.07 10.03Q168.75 13.26 165.89 13.92L165.89 13.92ZM385.77-127.81L385.77-127.81L415.21-121.07Q414.77-119.60 413.34-118.65Q411.91-117.70 409.20-117.63L409.20-117.63Q405.18-104.08 399.76-92.87L399.76-92.87L418.95-92.87L429.27-106.93Q429.27-106.93 431.21-105.40Q433.15-103.86 436.12-101.40Q439.09-98.95 442.31-96.20Q445.53-93.46 448.17-91.04L448.17-91.04Q447.51-88.62 443.85-88.62L443.85-88.62L435.28-88.62Q433.37-71.41 428.80-55.99Q424.22-40.58 415.36-27.76L415.36-27.76Q428.61-14.06 448.02-5.27L448.02-5.27L447.58-3.74Q439.75-2.05 435.24 2.45Q430.74 6.96 428.69 14.28L428.69 14.28Q420.92 8.50 414.77 1.43Q408.62-5.64 403.78-14.14L403.78-14.14Q394.26-4.91 380.90 2.34Q367.53 9.59 349.51 14.43L349.51 14.43L348.63 12.89Q365.84 4.32 377.42-6.59Q388.99-17.50 396.31-30.32L396.31-30.32Q392.80-39.55 390.34-49.77Q387.89-59.99 386.13-71.12L386.13-71.12Q378.81-61.82 369.14-54.42L369.14-54.42L367.53-55.52Q368.48-57.64 369.43-59.88Q370.39-62.11 371.41-64.53L371.41-64.53L356.40-64.53L356.40-25.20L382.03-31.05L382.32-29.37Q372.36-23.22 356.36-14.76Q340.36-6.30 316.48 4.47L316.48 4.47Q315.23 7.76 312.45 8.72L312.45 8.72L301.83-14.14L310.77-15.75L310.77-87.89L332.67-85.99Q332.45-84.74 331.57-83.86Q330.69-82.98 328.34-82.62L328.34-82.62L328.34-19.19L336.18-20.87L336.18-107.67L306.15-107.67L304.98-111.91L352.95-111.91L363.43-125.54Q363.43-125.54 365.33-124.04Q367.24-122.53 370.17-120.19Q373.10-117.85 376.32-115.14Q379.54-112.43 382.18-110.08L382.18-110.08Q381.52-107.67 378.00-107.67L378.00-107.67L356.40-107.67L356.40-70.53L364.53-82.76L374.56-73.17Q378.59-85.47 381.59-99.54Q384.59-113.60 385.77-127.81ZM402.76-43.65L402.76-43.65Q406.79-54.13 408.95-65.44Q411.11-76.76 411.77-88.62L411.77-88.62L397.63-88.62Q395.65-84.96 393.49-81.52Q391.33-78.08 389.14-74.85L389.14-74.85Q394.04-57.42 402.76-43.65Z"/>
    </svg>
        