<svg width="259" height="259" version="1.1" xmlns="http://www.w3.org/2000/svg" xmlns:xlink="http://www.w3.org/1999/xlink"><path d="M233.36 203.65L233.36 203.65Q221.44 207.27 195.03 207.27L195.03 207.27Q191.66 207.27 189.85 207.01L189.85 207.01Q181.04 205.20 151.26 168.94L151.26 168.94Q150.22 167.65 149.70 166.87L149.70 166.87Q125.87 191.22 84.95 198.47L84.95 198.47L83.40 197.17Q85.99 195.10 99.46 188.88L99.46 188.88Q101.79 187.85 103.34 187.07L103.34 187.07Q129.76 172.83 141.67 155.99L141.67 155.99L125.36 134.75Q119.14 127.76 112.92 123.36L112.92 123.36Q112.41 122.32 112.41 121.29L112.41 121.29Q112.92 119.99 114.22 119.73L114.22 119.73Q123.03 117.40 136.23 133.98L136.23 133.98Q145.30 144.85 146.85 146.41L146.85 146.41Q156.18 131.39 153.07 106.26L153.07 106.26Q151.77 95.39 148.41 87.36L148.41 87.36Q139.08 87.36 131.83 84.25L131.83 84.25L122.25 99.27Q118.10 104.19 113.70 106.52L113.70 106.52L111.89 105.23Q129.24 66.64 133.90 49.80L133.90 49.80Q141.16 23.13 133.38 15.87L133.38 15.87Q132.61 7.59 146.85 13.80L146.85 13.80Q155.40 17.69 158.25 21.05L158.25 21.05Q158.25 27.79 136.49 74.15L136.49 74.15Q134.94 77.26 134.16 78.81L134.16 78.81Q145.04 77.77 159.54 73.37L159.54 73.37L183.63 64.05Q197.88 59.38 204.61 64.82L204.61 64.82Q205.91 65.86 205.91 68.45L205.91 68.45Q205.91 68.97 205.65 69.49L205.65 69.49Q201.24 72.59 172.49 81.40L172.49 81.40Q164.72 83.47 161.62 84.77L161.62 84.77Q168.61 88.65 171.20 91.50L171.20 91.50Q167.83 123.36 166.02 131.39L166.02 131.39Q162.65 146.15 156.18 156.77L156.18 156.77Q175.60 176.71 199.43 186.81L199.43 186.81Q202.28 188.11 231.03 199.25L231.03 199.25Q233.36 201.58 233.36 203.65ZM109.30 52.91L110.33 54.46Q110.33 57.57 107.23 59.38L107.23 59.38Q102.31 61.97 85.47 65.34L85.47 65.34L75.11 68.19Q82.62 74.15 83.14 74.67L83.14 74.67L82.36 102.90Q100.49 97.20 107.23 102.90L107.23 102.90L108.78 104.45Q108.78 106.52 106.19 107.56L106.19 107.56L82.36 112.74L80.03 155.99Q84.43 155.22 101.01 148.74L101.01 148.74Q104.38 147.44 107.23 146.67L107.23 146.67L109.82 147.19L109.82 150.03Q102.31 157.03 57.24 176.97L57.24 176.97Q49.47 180.34 46.10 181.89L46.10 181.89Q42.99 183.45 29.79 192.51L29.79 192.51Q27.20 194.32 24.86 195.62L24.86 195.62Q20.72 195.36 11.66 189.92L11.66 189.92Q9.06 188.37 7.25 187.59L7.25 187.59Q4.92 185.52 4.92 179.56L4.92 179.56L17.61 176.97L38.85 171.01L37.04 138.90Q34.71 119.73 27.71 107.04L27.71 107.04Q27.20 97.98 40.15 106.00L40.15 106.00Q45.58 109.11 47.66 111.70L47.66 111.70L47.40 150.03Q47.91 159.62 49.21 167.39L49.21 167.39L68.38 160.91Q69.67 145.89 68.89 98.75L68.89 98.75Q68.89 92.80 68.89 87.88L68.89 87.88Q68.89 79.07 65.01 70.52L65.01 70.52Q52.06 73.11 42.22 70.52L42.22 70.52Q36.78 69.23 34.19 66.12L34.19 66.12Q34.19 64.31 38.07 63.01L38.07 63.01Q39.37 62.75 54.91 59.64L54.91 59.64L57.50 59.13L96.09 49.54Q97.38 49.54 98.42 49.28L98.42 49.28Q107.23 51.36 109.30 52.91L109.30 52.91Z" stroke="#000" fill="black" /></svg>