<svg width="259" height="259" version="1.1" xmlns="http://www.w3.org/2000/svg" xmlns:xlink="http://www.w3.org/1999/xlink"><path d="M229.99 168.06L232.32 170.39L231.03 171.68Q195.55 174.27 186.74 168.84L186.74 168.84Q166.80 142.42 151.00 115.22L151.00 115.22L150.22 213.12Q150.22 220.12 142.71 227.37L142.71 227.37Q138.82 227.37 136.23 220.38L136.23 220.38Q134.68 216.49 133.90 215.20L133.90 215.20Q131.83 206.13 135.20 188.78L135.20 188.78Q136.49 182.82 137.01 179.20L137.01 179.20Q139.60 158.73 139.60 117.04L139.60 117.04Q119.66 153.55 86.51 178.16L86.51 178.16Q84.17 178.16 83.92 176.35L83.92 176.35Q88.58 169.35 109.82 141.90L109.82 141.90Q129.76 116.52 136.75 97.87L136.75 97.87L118.36 99.94Q110.59 99.68 104.90 93.47L104.90 93.47L107.23 91.39L139.86 85.96L140.64 84.92Q139.86 77.93 140.38 56.69L140.38 56.69Q140.38 38.30 133.64 28.20L133.64 28.20Q130.54 23.80 130.54 20.43L130.54 20.43Q135.72 14.99 149.18 24.05L149.18 24.05Q154.88 27.94 156.95 31.05L156.95 31.05Q157.47 31.82 157.47 33.90L157.47 33.90Q157.47 34.93 155.14 41.15L155.14 41.15L154.62 42.70Q151.52 54.88 151.52 81.55L151.52 81.55Q155.40 81.03 170.16 75.85L170.16 75.85Q185.70 70.42 194.25 76.37L194.25 76.37Q195.29 77.15 196.32 78.19L196.32 78.19Q196.58 79.74 196.06 80.78L196.06 80.78Q195.55 82.07 194.51 82.33L194.51 82.33L151.52 93.98Q151.00 95.80 151.00 104.60L151.00 104.60Q174.83 130.24 176.38 131.80L176.38 131.80Q191.66 147.08 205.91 154.85L205.91 154.85L229.99 168.06ZM98.16 91.39L98.16 91.39Q97.90 95.54 70.97 101.50L70.97 101.50Q69.93 104.34 70.19 119.63L70.19 119.63L83.92 123.77Q91.43 126.88 92.20 132.06L92.20 132.06Q92.98 138.01 90.39 138.53L90.39 138.53L85.99 138.53L85.73 138.53Q79.77 135.17 70.19 126.10L70.19 126.10Q68.89 147.86 67.60 207.94L67.60 207.94Q64.23 215.71 61.38 217.79L61.38 217.79Q58.53 217.79 56.72 215.20L56.72 215.20Q49.47 204.58 53.35 187.74L53.35 187.74L56.46 173.24Q58.53 162.62 59.05 131.28L59.05 131.28Q59.05 127.14 59.05 124.03L59.05 124.03Q46.62 149.93 15.80 180.49L15.80 180.49Q10.10 186.19 5.96 186.19L5.96 186.19L5.96 183.34Q39.89 139.31 53.35 109.52L53.35 109.52Q54.65 107.19 55.43 104.86L55.43 104.86L35.48 107.97Q22.53 109.27 14.76 103.57L14.76 103.57Q14.76 101.24 18.39 100.72L18.39 100.72L54.91 94.24Q57.50 93.73 59.83 93.21L59.83 93.21L60.35 62.39Q59.57 43.74 52.58 33.38L52.58 33.38L52.32 29.49Q57.76 24.83 66.30 31.57L66.30 31.57Q72.52 36.23 74.07 37.00L74.07 37.00Q76.92 40.11 77.18 42.70L77.18 42.70Q71.48 68.60 70.97 83.37L70.97 83.37Q70.97 86.21 70.97 89.32L70.97 89.32L85.47 86.47Q93.76 85.70 98.16 91.39Z" stroke="#000" fill="black" /></svg>