<svg width="259" height="259" version="1.1" xmlns="http://www.w3.org/2000/svg" xmlns:xlink="http://www.w3.org/1999/xlink"><path d="M224.55 161.88L224.55 161.88Q223.52 163.69 218.34 168.35L218.34 168.35Q217.04 169.39 216.27 170.42L216.27 170.42Q214.45 172.75 208.75 185.19L208.75 185.19Q207.98 187.26 206.94 188.81L206.94 188.81Q212.12 192.70 212.90 193.99L212.90 193.99Q212.38 196.06 210.83 196.84L210.83 196.84Q209.01 197.62 193.73 198.13L193.73 198.13Q176.12 199.95 154.36 203.31L154.36 203.31L153.33 211.60Q152.81 213.16 151.77 214.45L151.77 214.45Q144.26 210.57 142.45 195.54L142.45 195.54Q141.16 185.44 140.64 183.11L140.64 183.11Q136.75 167.83 135.72 165.50L135.72 165.50L135.20 164.47Q113.44 188.29 91.69 204.87L91.69 204.87Q75.11 217.04 66.82 217.30L66.82 217.30L67.08 215.75Q111.37 175.60 127.69 157.47L127.69 157.47Q160.32 121.73 183.89 71.74L183.89 71.74Q184.15 68.12 180.00 67.86L180.00 67.86L161.10 69.67Q155.92 69.67 152.29 67.86L152.29 67.86L132.61 92.46L145.30 98.68Q148.41 100.75 149.70 103.34L149.70 103.34Q151.26 105.41 151.52 108.52L151.52 108.52Q151.52 111.37 151.00 113.44L151.00 113.44Q150.22 115.25 148.41 116.29L148.41 116.29L144.52 115.00L129.24 96.87L118.88 105.15Q116.29 106.97 113.70 106.97L113.70 106.97L113.70 104.38Q138.31 72.52 146.59 56.72L146.59 56.72Q154.11 42.99 157.99 29.78L157.99 29.78Q158.51 27.71 158.51 26.68Q158.51 25.64 156.44 19.17L156.44 19.17Q155.92 17.35 155.92 15.80L155.92 15.80L157.99 14.50Q168.87 15.02 177.16 25.38L177.16 25.38L177.16 30.56Q172.49 36.52 157.73 59.31L157.73 59.31Q156.69 61.12 155.66 62.68L155.66 62.68Q162.65 62.68 177.93 59.31L177.93 59.31L191.14 54.65Q192.70 54.39 194.25 54.39L194.25 54.39L208.50 60.61Q210.05 61.64 211.34 62.68L211.34 62.68L211.34 65.27Q199.69 73.81 185.96 95.83L185.96 95.83Q176.90 109.82 173.01 115.00L173.01 115.00L142.19 155.92Q149.96 160.58 185.44 148.93L185.44 148.93Q187.52 148.41 189.59 147.63L189.59 147.63Q196.84 145.04 197.62 144.78L197.62 144.78Q206.42 143.49 218.60 151.77L218.60 151.77Q221.19 153.59 223.78 155.66L223.78 155.66Q224.55 157.73 224.55 161.88ZM198.39 158.77L198.39 158.77Q197.10 156.95 192.96 156.95L192.96 156.95L150.22 165.24L153.59 194.25Q173.79 191.66 189.33 187.26L189.33 187.26Q193.21 185.96 194.25 185.19L194.25 185.19Q198.39 169.39 198.39 158.77ZM123.03 136.75L123.03 136.75L122.51 138.31Q105.93 151.77 101.79 155.40L101.79 155.40L100.75 155.40Q101.01 152.55 104.90 144.00L104.90 144.00Q105.93 142.19 106.45 140.64L106.45 140.64Q107.48 139.34 107.23 134.16L107.23 134.16Q106.97 130.54 108.78 128.98L108.78 128.98Q117.33 128.98 123.03 136.75ZM124.32 63.97L119.40 63.71Q115.51 61.12 97.38 46.36L97.38 46.36L94.79 44.29Q73.81 81.33 62.16 96.35L62.16 96.35Q72.78 95.05 87.28 88.84L87.28 88.84Q106.19 81.07 112.41 88.06L112.41 88.06Q112.92 88.58 113.18 89.10L113.18 89.10L112.15 91.69L89.87 99.20Q92.98 104.89 92.46 115.00L92.46 115.00Q100.23 112.41 107.48 114.22L107.48 114.22Q111.11 115.00 112.67 117.07L112.67 117.07Q112.92 120.43 106.19 123.02L106.19 123.02L92.98 126.65L91.17 167.83Q92.98 167.83 105.15 164.47L105.15 164.47Q109.56 163.43 112.67 163.43L112.67 163.43Q111.63 167.83 101.01 173.01L101.01 173.01Q95.83 175.60 70.71 185.44L70.71 185.44Q53.87 191.92 44.29 198.91L44.29 198.91Q39.37 198.13 30.56 192.44L30.56 192.44Q27.97 190.62 27.45 189.59L27.45 189.59Q26.42 188.03 26.42 183.37L26.42 183.37Q28.49 182.08 36.52 182.08L36.52 182.08Q37.55 181.82 38.59 181.82L38.59 181.82Q46.36 180.78 72.00 173.53L72.00 173.53Q77.44 172.23 81.33 171.20L81.33 171.20L81.07 130.54L65.01 133.13Q57.24 133.38 53.09 128.72L53.09 128.72L55.17 126.65Q76.66 121.47 80.29 120.43L80.29 120.43L78.74 102.82L65.27 103.60Q61.12 103.08 58.27 101.01L58.27 101.01L39.63 119.14Q25.90 131.31 14.76 134.16L14.76 134.16L13.73 133.13Q74.85 73.56 80.81 36.78L80.81 36.78Q82.36 27.45 80.29 20.20L80.29 20.20Q86.77 14.76 97.13 22.27L97.13 22.27Q100.23 24.60 102.31 27.45L102.31 27.45L103.34 29.01Q103.08 31.34 98.94 37.04L98.94 37.04Q97.90 38.59 97.38 39.89L97.38 39.89L113.44 44.03Q126.13 48.69 126.65 58.53L126.65 58.53Q126.91 63.97 124.32 63.97L124.32 63.97ZM71.23 154.10L72.52 155.92Q72.52 171.72 59.57 159.28L59.57 159.28Q52.58 152.29 48.95 145.56L48.95 145.56Q48.95 143.49 54.39 143.49L54.39 143.49Q67.60 148.41 71.23 154.10L71.23 154.10Z" stroke="#000" fill="black" /></svg>