<?xml version="1.0" standalone="no"?>
<!DOCTYPE svg PUBLIC "-//W3C//DTD SVG 20010904//EN"
 "http://www.w3.org/TR/2001/REC-SVG-20010904/DTD/svg10.dtd">
<svg version="1.0" xmlns="http://www.w3.org/2000/svg"
 width="1642.000000pt" height="1743.000000pt" viewBox="0 0 1642.000000 1743.000000"
 preserveAspectRatio="xMidYMid meet">

<g transform="translate(0.000000,1743.000000) scale(0.100000,-0.100000)"
fill="#000000" stroke="none">
<path d="M8660 14669 c-13 -6 -49 -27 -78 -47 -30 -20 -64 -42 -75 -49 -91
-52 -219 -213 -263 -330 -14 -37 -34 -88 -45 -112 -11 -23 -35 -118 -54 -210
-19 -91 -39 -179 -44 -196 -6 -16 -15 -59 -20 -95 -5 -36 -19 -110 -30 -165
-11 -55 -36 -183 -56 -285 -20 -102 -48 -221 -61 -265 -71 -231 -108 -346
-130 -405 -13 -36 -24 -71 -24 -78 0 -7 -18 -48 -40 -91 -22 -43 -40 -81 -40
-84 0 -4 -16 -42 -36 -84 -20 -43 -45 -100 -56 -128 -54 -136 -155 -300 -305
-495 -23 -30 -51 -67 -62 -81 -11 -14 -46 -45 -78 -70 -32 -24 -98 -78 -148
-119 -145 -122 -337 -256 -398 -279 -14 -6 -45 -22 -69 -38 -41 -26 -266 -131
-373 -175 -27 -11 -106 -45 -175 -74 -69 -30 -138 -58 -155 -63 -16 -5 -68
-26 -115 -46 -47 -20 -107 -45 -135 -55 -27 -10 -88 -36 -135 -58 -47 -22 -96
-43 -110 -47 -14 -4 -104 -47 -200 -95 -96 -48 -269 -134 -385 -191 -115 -56
-219 -110 -230 -119 -26 -21 -141 -90 -150 -90 -4 0 -25 -13 -48 -28 -23 -16
-69 -46 -102 -68 -33 -21 -85 -59 -115 -84 -30 -25 -122 -93 -203 -150 -82
-57 -157 -117 -169 -132 -11 -16 -63 -61 -116 -100 -59 -44 -176 -153 -303
-283 -267 -271 -431 -466 -591 -700 -22 -33 -49 -69 -59 -80 -9 -11 -34 -52
-54 -92 -20 -39 -42 -76 -48 -82 -13 -10 -30 -45 -133 -271 -153 -337 -168
-382 -233 -675 -12 -55 -29 -129 -38 -165 -42 -179 -44 -203 -39 -555 3 -299
6 -350 24 -426 12 -47 26 -126 32 -175 11 -89 37 -200 64 -271 8 -21 17 -50
20 -66 4 -15 18 -52 31 -82 14 -29 25 -58 25 -64 0 -6 6 -25 14 -43 21 -49 80
-185 107 -248 26 -60 130 -238 196 -337 52 -78 131 -177 214 -268 112 -123
432 -377 668 -530 9 -6 55 -36 103 -68 47 -31 89 -57 92 -57 3 0 24 -13 48
-29 24 -16 156 -86 293 -156 138 -70 255 -131 261 -136 6 -5 36 -18 67 -28 31
-11 75 -31 99 -44 24 -13 72 -32 108 -42 36 -9 90 -28 120 -42 30 -14 82 -33
115 -43 33 -10 78 -25 100 -34 46 -20 160 -58 225 -76 25 -6 79 -22 120 -35
41 -12 100 -28 130 -34 30 -7 89 -20 130 -31 41 -10 116 -26 165 -35 50 -9
137 -27 195 -40 227 -53 501 -101 595 -104 88 -3 298 -21 354 -31 30 -6 80
-10 110 -10 31 0 110 -7 176 -15 157 -20 243 -23 845 -30 515 -6 839 2 1155
30 94 8 229 15 300 15 83 0 170 8 240 20 61 11 153 24 205 30 52 6 118 15 145
21 28 6 91 14 140 19 185 17 482 65 650 105 55 13 152 33 215 44 131 23 380
87 485 124 39 14 131 46 205 72 74 26 153 56 174 67 22 11 62 27 90 35 28 8
56 19 61 23 9 8 131 72 335 177 105 54 167 92 239 147 31 23 77 54 104 69 26
16 47 32 47 37 0 4 21 22 48 39 229 150 300 208 544 450 192 190 242 242 260
271 9 14 41 54 73 90 74 85 234 319 235 344 0 6 11 21 24 35 13 15 32 40 43
58 10 17 35 59 55 92 21 34 48 87 61 119 46 111 76 188 102 267 15 44 50 145
77 225 28 80 57 170 65 200 90 348 139 603 122 646 -4 12 -3 70 2 130 10 120
5 409 -9 519 -12 94 -93 405 -126 482 -14 34 -26 67 -26 73 0 6 -31 76 -70
156 -38 80 -70 149 -70 155 0 15 -116 236 -162 309 -59 94 -174 246 -235 312
-29 31 -53 62 -53 68 0 13 -257 270 -320 320 -24 19 -68 56 -97 81 -28 25
-107 83 -175 129 -67 46 -143 99 -167 117 -24 19 -62 44 -84 56 -54 30 -68 39
-113 68 -90 59 -263 156 -314 176 -103 40 -335 122 -490 173 -475 159 -530
180 -800 312 -539 263 -575 282 -730 388 -14 9 -52 35 -85 58 -82 55 -169 140
-250 242 -114 143 -166 232 -205 355 -12 39 -31 89 -41 112 -10 23 -23 59 -28
80 -15 61 -51 164 -77 220 -13 28 -24 58 -24 66 0 8 -7 31 -15 50 -8 20 -38
125 -65 234 -28 109 -55 212 -60 228 -15 49 -89 367 -96 410 -3 22 -10 54 -15
70 -34 114 -90 392 -103 505 -3 30 -10 78 -15 105 -26 140 -53 273 -61 300 -5
17 -18 77 -30 135 -12 58 -28 121 -36 142 -7 20 -16 60 -20 90 -10 80 -97 272
-169 374 -42 60 -122 114 -195 133 -58 15 -163 20 -190 10z m-160 -294 c0 -13
-5 -25 -11 -27 -9 -3 -8 -10 1 -28 10 -19 11 -114 4 -474 -4 -248 -8 -597 -7
-776 0 -179 -3 -305 -7 -280 l-7 45 -1 -43 c-1 -24 -7 -52 -12 -63 -7 -13 -7
-19 0 -19 5 0 10 -19 11 -42 1 -32 3 -37 7 -20 4 13 6 -40 5 -117 -1 -79 3
-141 8 -141 5 0 9 -18 9 -40 0 -22 -4 -40 -10 -40 -5 0 -10 -18 -10 -40 0 -22
5 -40 10 -40 14 0 12 -78 -2 -82 -16 -6 -16 -250 1 -256 17 -6 13 -42 -4 -42
-13 0 -15 -25 -14 -172 1 -95 4 -162 8 -148 6 22 8 23 14 7 12 -32 8 -185 -5
-189 -9 -3 -13 -89 -16 -321 -3 -174 -8 -317 -13 -317 -5 0 -9 -46 -9 -102 -1
-63 -6 -118 -15 -143 -8 -22 -15 -57 -15 -77 0 -27 -4 -38 -15 -38 -17 0 -21
-36 -4 -42 17 -6 0 -78 -19 -78 -12 0 -14 -10 -9 -53 6 -65 -1 -107 -19 -107
-10 0 -14 -15 -14 -59 0 -33 -4 -63 -10 -66 -14 -8 -13 -101 1 -128 9 -16 9
-22 0 -25 -6 -2 -11 -12 -11 -23 0 -10 -5 -19 -11 -19 -8 0 -10 -12 -6 -33 3
-18 -1 -43 -8 -57 -9 -18 -10 -30 -3 -44 7 -13 7 -26 -1 -43 -6 -13 -11 -31
-11 -40 0 -9 -8 -25 -17 -35 -9 -11 -20 -42 -25 -71 -15 -105 -19 -117 -44
-123 -17 -4 -24 -13 -24 -29 0 -13 -6 -26 -12 -29 -10 -5 -10 -7 0 -12 15 -7
16 -50 1 -59 -6 -4 -8 -14 -5 -22 6 -16 -51 -156 -65 -161 -5 -2 -9 -12 -9
-23 0 -10 -4 -19 -10 -19 -13 0 -13 -37 1 -42 15 -5 0 -58 -17 -58 -10 0 -14
-14 -14 -50 0 -31 -8 -66 -20 -90 -11 -22 -20 -48 -20 -58 0 -10 -9 -27 -20
-37 -11 -10 -20 -29 -20 -42 0 -16 -6 -23 -20 -23 -12 0 -20 -7 -20 -16 0 -9
-9 -27 -20 -41 -11 -14 -20 -34 -20 -44 0 -12 -7 -19 -19 -19 -15 0 -21 -10
-27 -42 -6 -38 -8 -40 -14 -18 -6 22 -8 20 -14 -17 -5 -27 -13 -43 -22 -43
-10 0 -14 -12 -14 -40 0 -33 -3 -40 -20 -40 -25 0 -26 -26 -2 -54 17 -21 17
-21 -5 -2 -12 10 -37 20 -55 21 -18 2 -33 4 -33 5 0 1 -13 4 -30 6 -16 2 -52
9 -80 16 -30 7 -154 12 -310 12 l-260 1 -75 -28 c-41 -16 -84 -31 -95 -34 -11
-3 -33 -16 -50 -28 -16 -12 -49 -32 -72 -44 -24 -11 -62 -35 -85 -51 -24 -17
-69 -48 -100 -70 -31 -22 -65 -53 -75 -70 -9 -16 -20 -30 -24 -30 -6 0 -76
-101 -131 -190 -29 -47 -76 -179 -99 -280 -15 -66 -17 -358 -2 -515 13 -148
54 -279 120 -386 13 -20 24 -45 26 -57 2 -12 6 -24 8 -27 12 -11 -7 -75 -28
-99 -13 -15 -23 -35 -23 -45 0 -12 -10 -21 -27 -25 -52 -13 -83 -31 -83 -48 0
-11 -8 -18 -20 -18 -12 0 -25 -10 -32 -25 -8 -18 -17 -24 -30 -19 -13 4 -18 0
-18 -15 0 -12 -4 -21 -10 -21 -5 0 -10 -9 -10 -20 0 -17 -7 -20 -40 -20 -33 0
-40 -3 -40 -20 0 -13 -7 -20 -20 -20 -13 0 -20 -7 -20 -20 0 -17 -7 -20 -40
-20 -33 0 -40 -3 -40 -20 0 -13 -7 -20 -19 -20 -11 0 -21 -4 -23 -10 -1 -5
-28 -14 -58 -19 -30 -5 -47 -9 -37 -10 25 -2 23 -41 -3 -41 -11 0 -20 -7 -20
-15 0 -8 -9 -15 -20 -15 -11 0 -20 5 -20 10 0 22 -17 8 -30 -25 l-14 -35 -78
0 c-71 0 -78 -2 -78 -20 0 -18 -7 -20 -80 -20 -73 0 -80 -2 -80 -20 0 -17 -7
-20 -40 -20 -22 0 -40 -4 -40 -10 0 -6 -73 -10 -200 -10 -127 0 -200 -4 -200
-10 0 -6 33 -10 80 -10 48 0 80 -4 80 -10 0 -9 -159 -9 -667 -1 -18 0 -52 1
-75 0 -75 0 -122 7 -155 24 -18 10 -55 17 -86 17 -40 0 -67 7 -98 25 -28 16
-60 25 -87 25 -29 0 -67 12 -122 40 -44 22 -86 40 -95 40 -8 0 -15 6 -15 14 0
9 -23 22 -60 33 -44 13 -60 22 -60 35 0 11 -7 18 -20 18 -11 0 -20 4 -20 8 0
5 -16 16 -35 25 -19 9 -35 21 -35 27 0 5 -6 10 -14 10 -7 0 -19 7 -26 15 -7 8
-19 15 -28 15 -22 0 -62 40 -62 62 0 11 -7 18 -20 18 -13 0 -20 7 -20 20 0 13
-7 20 -20 20 -11 0 -20 7 -20 15 0 9 -9 15 -24 15 -17 0 -27 9 -37 33 -7 17
-21 40 -32 51 -11 10 -17 26 -14 37 4 15 -3 23 -30 34 -20 8 -44 15 -54 15
-12 0 -19 8 -20 20 -3 41 -20 75 -39 75 -8 0 -15 7 -15 15 0 15 -28 46 -46 52
-5 2 -13 23 -17 48 -6 35 -14 49 -39 65 -20 12 -32 28 -33 42 0 12 -6 24 -12
27 -10 5 -10 7 0 12 25 12 11 24 -28 24 -22 0 -40 -4 -40 -10 0 -14 -37 -12
-43 3 -3 6 -3 -3 0 -20 5 -29 3 -33 -16 -33 -14 0 -23 -8 -27 -27 -9 -36 -30
-58 -37 -40 -3 6 -6 -2 -6 -20 -1 -17 -5 -33 -11 -35 -22 -7 -42 -237 -36
-403 9 -208 11 -232 36 -304 11 -33 20 -70 20 -81 0 -11 4 -28 9 -38 10 -19
35 -101 36 -118 0 -6 8 -19 18 -29 10 -10 16 -24 13 -32 -3 -8 -2 -12 3 -9 5
3 16 -16 25 -42 29 -79 35 -92 46 -92 5 0 10 -5 10 -12 0 -6 14 -33 31 -60 17
-27 29 -51 26 -54 -3 -4 4 -16 16 -28 28 -27 59 -72 80 -116 9 -19 26 -46 39
-60 13 -14 29 -37 37 -53 8 -15 18 -27 23 -27 4 0 8 -6 8 -12 0 -7 32 -46 70
-87 39 -41 70 -78 70 -82 0 -4 9 -11 20 -14 11 -3 20 -12 20 -19 0 -7 21 -33
48 -56 130 -120 211 -190 220 -190 5 0 15 -13 22 -29 12 -30 35 -46 51 -35 5
3 12 -2 15 -10 3 -9 12 -16 20 -16 8 0 13 -5 12 -12 -2 -7 18 -23 44 -38 26
-14 85 -52 130 -86 46 -33 99 -69 118 -80 19 -10 37 -22 40 -26 5 -7 52 -33
127 -72 13 -6 23 -15 23 -19 0 -5 4 -6 9 -3 4 3 29 -8 55 -24 26 -17 52 -30
59 -30 7 0 23 -9 37 -20 14 -11 30 -20 37 -20 7 0 41 -18 75 -40 35 -22 71
-40 80 -40 9 0 36 -13 60 -29 24 -16 67 -37 95 -46 29 -10 53 -22 53 -27 0 -5
4 -7 9 -4 4 3 25 -4 47 -14 21 -11 43 -20 50 -20 6 0 32 -11 58 -25 26 -14 53
-25 60 -25 8 0 19 -7 26 -15 7 -8 23 -15 37 -15 13 0 43 -9 65 -20 23 -11 47
-20 52 -20 6 0 25 -7 41 -16 17 -9 38 -18 48 -20 9 -2 25 -6 35 -8 59 -14 78
-20 87 -26 6 -4 31 -11 58 -14 26 -4 47 -11 47 -15 0 -4 16 -8 36 -9 20 -2 59
-12 87 -23 29 -11 63 -22 77 -25 14 -3 60 -16 102 -29 42 -14 91 -25 107 -25
16 0 32 -4 36 -9 3 -5 18 -9 33 -9 33 1 141 -21 164 -33 23 -12 161 -38 171
-32 4 3 13 0 20 -5 7 -5 44 -13 82 -16 39 -4 93 -11 120 -16 28 -5 100 -14
160 -20 107 -10 146 -13 380 -27 61 -3 112 -9 115 -14 3 -4 44 -10 91 -13 47
-3 146 -10 220 -15 306 -23 463 -31 634 -33 279 -3 1092 12 1270 23 357 22
425 28 540 43 184 26 414 55 475 61 30 3 78 12 105 20 28 9 79 20 115 25 36 6
88 15 115 21 57 11 106 21 220 45 44 9 89 20 100 24 11 5 38 13 60 18 22 6 58
17 80 26 22 8 51 15 65 16 14 0 36 7 50 15 14 8 35 14 48 15 12 0 39 7 60 17
20 9 41 15 46 14 13 -3 70 21 77 32 4 5 38 15 76 22 38 7 90 22 114 33 24 11
61 23 83 27 21 3 46 10 55 15 50 25 119 51 139 53 12 1 22 4 22 8 0 6 31 17
69 25 8 1 17 6 20 11 3 4 13 9 21 11 16 4 94 36 130 55 69 36 116 63 121 71 4
5 11 6 17 2 6 -3 12 -2 14 4 2 6 28 20 58 33 55 22 95 47 131 80 10 9 22 17
26 17 12 0 87 54 101 73 7 9 19 17 25 17 7 0 32 18 57 40 25 22 48 40 53 40 4
0 15 8 25 18 10 9 35 32 55 50 20 18 37 37 37 42 0 6 7 10 15 10 7 0 31 21 52
46 21 25 55 55 76 66 20 12 37 25 37 30 0 14 68 78 83 78 9 0 19 9 22 20 3 11
11 20 16 20 6 0 16 6 23 13 8 6 48 43 89 81 42 37 79 77 82 87 4 11 13 19 21
19 8 0 14 4 14 9 0 5 11 12 24 15 13 3 35 22 50 41 15 19 31 35 35 35 11 0
201 188 201 199 0 4 13 21 29 37 29 29 60 76 83 124 6 14 20 34 29 45 9 11 34
52 54 90 20 39 41 74 46 79 5 6 9 16 9 24 0 16 42 127 71 188 10 23 19 47 19
54 0 6 7 24 14 38 27 48 76 207 76 243 0 19 5 40 11 46 6 6 12 21 14 34 2 13
12 53 24 87 11 35 17 70 14 78 -3 8 -1 14 5 14 9 0 15 34 29 160 3 30 9 60 13
65 12 15 34 219 35 330 2 147 -22 493 -35 510 -5 6 -11 30 -14 55 -12 95 -37
224 -45 234 -5 6 -14 36 -22 66 -7 30 -19 67 -26 82 -7 15 -13 35 -13 45 0 10
-7 30 -14 45 -8 16 -25 58 -37 95 -13 38 -39 100 -59 138 -78 147 -102 190
-111 200 -5 5 -9 17 -9 27 0 10 -4 18 -9 18 -5 0 -12 9 -16 19 -3 11 -21 39
-40 63 -19 23 -35 49 -35 56 0 6 -4 12 -10 12 -5 0 -10 5 -10 12 0 9 -23 42
-100 142 -8 11 -25 29 -37 41 -13 12 -23 27 -23 32 0 27 -369 385 -446 432
-16 10 -42 31 -58 46 -16 15 -89 67 -162 117 -74 50 -134 94 -134 98 0 4 -13
13 -29 20 -16 6 -39 22 -52 36 -12 13 -28 24 -34 24 -6 0 -24 14 -40 30 -16
17 -34 30 -39 30 -6 0 -31 16 -55 35 -24 19 -49 35 -56 35 -7 0 -18 7 -26 16
-7 9 -51 34 -98 57 -47 22 -102 51 -121 62 -19 12 -43 21 -52 19 -10 -1 -18 2
-18 7 0 5 -15 15 -32 23 -18 8 -28 15 -22 15 13 1 188 -63 216 -79 10 -6 24
-10 32 -10 21 0 213 -87 270 -123 28 -18 62 -38 76 -44 40 -20 229 -141 371
-238 225 -155 342 -250 486 -396 93 -95 142 -150 273 -309 46 -55 150 -210
150 -223 0 -3 22 -40 48 -80 27 -41 61 -105 77 -143 15 -38 46 -109 67 -159
53 -121 114 -272 126 -315 53 -175 100 -377 109 -467 15 -149 -1 -619 -26
-778 -13 -77 -56 -272 -71 -321 -6 -17 -10 -37 -10 -45 0 -15 -57 -191 -143
-444 -58 -168 -126 -330 -163 -386 -16 -24 -33 -52 -39 -61 -85 -143 -277
-422 -329 -478 -24 -25 -58 -65 -76 -90 -40 -54 -344 -356 -415 -413 -27 -21
-77 -64 -110 -93 -69 -62 -200 -153 -263 -183 -39 -19 -76 -45 -202 -147 -111
-89 -600 -328 -820 -401 -41 -14 -84 -29 -95 -34 -120 -53 -468 -148 -625
-169 -46 -6 -124 -22 -174 -35 -105 -27 -215 -48 -336 -65 -47 -6 -108 -16
-135 -21 -28 -5 -106 -16 -175 -24 -202 -23 -421 -53 -472 -64 -26 -6 -157
-16 -290 -21 -134 -6 -270 -15 -303 -20 -87 -13 -663 -31 -1000 -31 -374 0
-941 25 -1170 52 -99 11 -245 24 -325 29 -159 9 -264 23 -350 45 -31 8 -96 21
-146 29 -49 8 -186 37 -304 65 -118 28 -224 51 -236 51 -11 0 -72 14 -135 31
-63 16 -145 38 -184 48 -84 22 -227 67 -273 87 -19 8 -75 30 -125 50 -51 19
-130 51 -177 70 -47 19 -89 34 -93 34 -4 0 -96 43 -203 95 -107 52 -222 106
-254 120 -54 23 -102 50 -319 177 -88 52 -294 188 -385 255 -264 195 -369 281
-461 382 -99 108 -235 281 -235 299 0 4 -6 14 -12 20 -23 23 -150 259 -163
302 -4 14 -19 54 -35 90 -84 197 -96 231 -140 380 -12 41 -26 86 -30 100 -5
14 -11 57 -15 95 -3 39 -10 84 -16 100 -11 36 -29 160 -34 230 -13 184 -3 692
15 750 4 17 23 93 40 170 53 236 71 308 90 365 26 77 69 180 90 215 10 17 33
66 50 110 36 91 125 272 145 295 7 8 23 35 35 60 13 25 35 63 50 85 15 22 44
65 64 95 58 89 191 269 233 313 21 23 62 70 91 105 72 87 519 530 563 558 20
12 42 29 50 37 37 37 165 138 248 197 51 36 111 80 134 97 23 18 57 41 76 50
19 10 47 30 63 45 15 14 72 52 126 83 53 32 113 68 133 81 111 70 327 182 414
215 33 12 81 35 107 50 74 44 202 107 323 159 61 26 142 61 180 78 85 37 220
93 335 140 281 114 475 195 570 239 110 51 288 154 368 212 160 118 245 184
279 219 21 21 50 46 64 55 74 45 197 180 265 289 14 24 38 55 52 70 14 15 36
45 48 65 48 79 274 548 274 569 0 5 8 25 19 44 22 41 65 171 111 330 18 63 46
153 62 200 41 118 103 391 124 545 3 28 15 83 25 122 10 40 19 83 19 96 0 13
9 57 19 98 11 41 31 133 46 204 36 176 123 385 190 460 33 36 45 36 45 0z m0
-2565 c0 -11 -4 -20 -10 -20 -5 0 -10 9 -10 20 0 11 5 20 10 20 6 0 10 -9 10
-20z m1543 -3535 c93 -4 119 -10 191 -39 203 -84 303 -161 441 -336 100 -127
175 -366 175 -555 -1 -90 -32 -331 -51 -385 -45 -131 -115 -236 -246 -365 -91
-91 -222 -165 -343 -195 -25 -6 -61 -17 -80 -24 -78 -30 -214 -48 -352 -47
-123 1 -148 4 -229 30 -50 16 -109 42 -132 57 -23 15 -60 39 -81 53 -50 33
-102 83 -152 146 -21 27 -65 81 -96 119 -32 38 -58 73 -58 78 0 6 -8 22 -18
36 -11 15 -33 68 -49 117 -36 106 -49 248 -34 365 29 220 27 210 90 370 35 90
102 200 141 235 148 133 332 255 412 275 18 5 58 17 89 29 67 24 202 49 244
45 17 -2 79 -6 138 -9z m-2823 -166 c58 0 143 -4 190 -9 47 -6 105 -12 130
-14 46 -4 79 -16 185 -67 126 -61 241 -171 307 -294 144 -264 176 -367 183
-586 5 -134 3 -147 -29 -279 -19 -77 -48 -167 -65 -200 -45 -87 -131 -207
-193 -266 -85 -81 -268 -202 -338 -222 -19 -6 -69 -22 -110 -37 -65 -24 -95
-28 -226 -33 -167 -5 -248 5 -359 44 -219 79 -393 237 -527 480 -51 92 -68
135 -68 174 0 15 -9 61 -20 104 -24 96 -31 352 -11 436 55 228 130 378 248
491 54 52 269 199 292 199 5 0 27 10 48 22 48 29 200 69 233 62 14 -3 72 -5
130 -5z m6317 -1101 c18 -13 33 -29 33 -36 0 -7 5 -10 10 -7 6 3 10 -3 10 -14
0 -12 7 -21 15 -21 8 0 15 -9 15 -20 0 -11 5 -20 12 -20 6 0 9 -3 6 -6 -3 -3
4 -33 17 -68 21 -57 52 -255 53 -331 0 -60 -29 -391 -39 -440 -21 -99 -58
-232 -89 -315 -47 -129 -159 -350 -181 -358 -5 -2 -9 -9 -9 -16 0 -6 -16 -36
-35 -66 -19 -30 -35 -60 -35 -67 0 -7 -7 -21 -16 -30 -8 -10 -25 -32 -37 -50
-12 -18 -46 -62 -74 -100 -29 -37 -53 -73 -53 -80 0 -7 -9 -17 -20 -23 -11 -6
-20 -16 -20 -23 0 -16 -58 -87 -72 -87 -6 0 -36 -27 -68 -60 -32 -33 -64 -60
-71 -60 -8 0 -27 -11 -43 -25 -16 -14 -37 -25 -47 -25 -10 0 -22 -6 -26 -13
-4 -7 -28 -19 -53 -27 -25 -8 -66 -27 -93 -43 -26 -16 -54 -27 -61 -24 -8 3
-20 0 -26 -8 -6 -8 -18 -11 -26 -8 -9 3 -34 0 -56 -8 -31 -10 -47 -10 -71 -1
-29 10 -30 10 -13 -3 19 -14 18 -15 -16 -15 -19 0 -50 3 -69 7 -28 5 -30 7
-14 14 17 7 18 8 3 8 -21 1 -23 12 -5 31 6 8 3 7 -9 -3 -27 -22 -37 -22 -29 2
3 10 0 30 -6 45 -11 23 -8 35 26 103 21 43 48 92 59 108 12 17 26 37 31 46 16
25 61 90 94 134 17 22 39 56 50 75 10 19 31 46 45 59 14 14 26 32 26 41 0 10
11 29 25 44 14 15 34 45 45 66 11 21 27 46 37 56 10 9 22 25 28 35 5 10 25 44
44 76 35 60 108 203 156 308 57 124 65 142 91 210 14 38 32 83 39 100 20 47
71 174 96 240 12 33 26 65 31 71 4 6 5 14 1 17 -3 4 0 13 6 21 7 8 10 20 6 26
-3 5 -1 10 4 10 6 0 11 8 11 18 0 10 4 22 9 28 4 5 21 50 36 99 15 50 31 94
36 100 5 5 9 18 9 30 0 11 11 38 25 60 13 22 25 47 25 56 0 9 9 24 20 34 11
10 20 22 20 28 0 13 66 77 80 77 6 0 8 5 5 10 -6 9 26 28 49 29 6 1 25 -9 43
-21z m-7162 -648 c3 -5 1 -10 -4 -10 -6 0 -11 5 -11 10 0 6 2 10 4 10 3 0 8
-4 11 -10z m4658 -807 c64 -35 97 -87 97 -155 0 -27 -4 -48 -8 -48 -5 0 -19
-46 -32 -102 -12 -57 -31 -117 -41 -134 -22 -36 -24 -60 -6 -67 21 -9 -146
-144 -207 -167 -13 -5 -57 -31 -97 -58 -41 -27 -110 -69 -154 -92 -44 -24 -92
-51 -106 -61 -14 -10 -68 -36 -120 -59 -139 -61 -237 -110 -250 -126 -6 -8
-18 -14 -25 -14 -7 0 -37 -11 -66 -24 -96 -43 -286 -106 -380 -127 -51 -12
-120 -27 -153 -35 -192 -45 -303 -65 -410 -74 -66 -6 -126 -13 -134 -15 -7 -3
-61 -12 -120 -21 -271 -40 -768 -16 -1141 55 -277 53 -316 62 -600 151 -69 21
-154 48 -190 59 -77 23 -240 89 -307 124 -26 14 -77 39 -113 56 -36 16 -86 43
-111 59 -46 29 -46 31 -42 74 5 52 22 175 27 203 2 11 4 23 5 28 0 4 8 7 16 7
8 0 15 4 15 9 0 5 9 11 20 14 12 3 20 14 20 25 0 17 9 21 50 27 33 5 50 12 50
21 0 8 9 14 20 14 11 0 20 4 20 9 0 5 19 11 43 14 23 2 56 9 72 15 17 6 53 15
80 20 71 15 125 35 125 48 0 15 64 28 68 14 2 -5 8 -7 13 -4 6 3 16 0 24 -6
18 -15 133 -70 146 -70 4 0 34 -12 66 -26 82 -38 270 -107 353 -131 30 -8 93
-23 140 -33 47 -9 110 -24 140 -33 63 -18 230 -46 340 -58 173 -18 581 -7 725
21 28 5 102 16 165 25 149 21 310 72 615 194 291 117 626 305 708 398 16 18
34 30 40 26 5 -3 7 -1 4 4 -4 6 9 20 27 31 21 13 33 16 30 8 -6 -14 65 -13
176 4 94 15 134 17 233 13 74 -2 97 -7 140 -30z"/>
<path d="M8473 13090 c0 -25 2 -35 4 -22 2 12 2 32 0 45 -2 12 -4 2 -4 -23z"/>
<path d="M8352 10130 c0 -14 2 -19 5 -12 2 6 2 18 0 25 -3 6 -5 1 -5 -13z"/>
<path d="M9702 7662 c-93 -32 -151 -80 -223 -185 -33 -48 -42 -72 -55 -153
-16 -90 -15 -100 1 -172 36 -157 113 -236 282 -288 70 -23 108 -28 188 -29 89
0 106 3 160 28 82 38 110 68 157 167 40 83 41 88 42 196 1 111 0 112 -39 190
-50 98 -135 190 -213 231 -46 24 -77 33 -138 37 -70 6 -88 3 -162 -22z"/>
<path d="M7129 7475 c-191 -54 -350 -330 -295 -509 16 -51 74 -154 110 -194
29 -33 73 -54 126 -63 25 -4 65 -13 90 -19 25 -7 80 -10 125 -7 106 6 191 44
258 116 70 75 100 146 105 252 l4 86 -51 99 c-60 117 -118 179 -206 217 -74
32 -196 43 -266 22z"/>
</g>
</svg>
